{
    "asset" : {
        "generator" : "Khronos glTF Blender I/O v1.3.48",
        "version" : "2.0"
    },
    "extensionsUsed" : [
        "KHR_materials_clearcoat"
    ],
    "scene" : 0,
    "scenes" : [
        {
            "name" : "Scene",
            "nodes" : [
                0,
                1,
                2,
                3,
                4
            ]
        }
    ],
    "nodes" : [
        {
            "name" : "Right",
            "translation" : [
                -1.2398080825805664,
                -1.5757216215133667,
                3.1779348850250244
            ]
        },
        {
            "name" : "Top",
            "translation" : [
                0.7954720854759216,
                0,
                3.2256217002868652
            ]
        },
        {
            "name" : "Back",
            "rotation" : [
                0.7071068286895752,
                0,
                0,
                0.7071067094802856
            ],
            "translation" : [
                1.6832913160324097,
                0.8168492317199707,
                0
            ]
        },
        {
            "name" : "Front",
            "rotation" : [
                0,
                0.7071067094802856,
                -0.7071068286895752,
                -3.0908616110991716e-08
            ],
            "translation" : [
                -1.6728827953338623,
                -0.3588606119155884,
                0
            ]
        },
        {
            "mesh" : 0,
            "name" : "Car"
        }
    ],
    "materials" : [
        {
            "doubleSided" : true,
            "emissiveFactor" : [
                0,
                0,
                0
            ],
            "extensions" : {
                "KHR_materials_clearcoat" : {
                    "clearcoatFactor" : 0.7343000173568726,
                    "clearcoatRoughnessFactor" : 0.07830917835235596
                }
            },
            "name" : "Material.001",
            "pbrMetallicRoughness" : {
                "baseColorFactor" : [
                    0.8000000715255737,
                    0,
                    0.008821607567369938,
                    1
                ],
                "metallicFactor" : 0.5314009785652161,
                "roughnessFactor" : 0.17632851004600525
            }
        }
    ],
    "meshes" : [
        {
            "name" : "Plane",
            "primitives" : [
                {
                    "attributes" : {
                        "POSITION" : 0,
                        "NORMAL" : 1,
                        "TEXCOORD_0" : 2
                    },
                    "indices" : 3,
                    "material" : 0
                }
            ]
        }
    ],
    "accessors" : [
        {
            "bufferView" : 0,
            "componentType" : 5126,
            "count" : 1116,
            "max" : [
                0.7381111979484558,
                0.8589483499526978,
                1.5912772417068481
            ],
            "min" : [
                -0.7381111979484558,
                0.14363127946853638,
                -1.7247707843780518
            ],
            "type" : "VEC3"
        },
        {
            "bufferView" : 1,
            "componentType" : 5126,
            "count" : 1116,
            "type" : "VEC3"
        },
        {
            "bufferView" : 2,
            "componentType" : 5126,
            "count" : 1116,
            "type" : "VEC2"
        },
        {
            "bufferView" : 3,
            "componentType" : 5123,
            "count" : 5718,
            "type" : "SCALAR"
        }
    ],
    "bufferViews" : [
        {
            "buffer" : 0,
            "byteLength" : 13392,
            "byteOffset" : 0
        },
        {
            "buffer" : 0,
            "byteLength" : 13392,
            "byteOffset" : 13392
        },
        {
            "buffer" : 0,
            "byteLength" : 8928,
            "byteOffset" : 26784
        },
        {
            "buffer" : 0,
            "byteLength" : 11436,
            "byteOffset" : 35712
        }
    ],
    "buffers" : [
        {
            "byteLength" : 47148,
            "uri" : "data:application/octet-stream;base64,"
        }
    ]
}
